<svg width="383" height="431" viewBox="0 0 383 431" fill="none" xmlns="http://www.w3.org/2000/svg">
<path d="M18.3415 15.1786C16.4436 13.0283 13.913 12.3958 11.2559 13.0283C9.61105 13.4077 8.0927 14.2932 6.32129 15.0521C11.509 21.25 16.5701 27.1949 21.6313 33.2664C24.668 36.808 28.2108 37.567 32.8924 35.2902C30.3618 31.2426 28.2108 27.4479 25.8068 23.9063C23.5292 20.8705 20.8721 18.0878 18.3415 15.1786Z" fill="#7F5BDC"/>
<path d="M0.228773 164.337C1.47673 165.595 2.46184 166.499 3.25036 167.562C4.40002 168.9 5.6092 169.135 7.32816 168.633C9.14084 168.135 11.0381 167.812 12.9307 167.574C18.4259 166.765 24.0102 166.045 29.5099 165.151C31.1214 164.898 32.6483 164.47 34.461 163.972C32.1892 160.788 29.4371 159.534 25.7455 160.015C18.4514 161.068 11.1574 162.12 3.86329 163.172C2.72494 163.366 1.662 163.904 0.228773 164.337Z" fill="#7F5BDC"/>
<path d="M322.371 36.3077C324.142 36.2242 325.473 36.0985 326.791 36.2255C328.554 36.2685 329.539 35.5287 330.317 33.9161C331.162 32.2374 332.193 30.613 333.284 29.0487C336.365 24.4282 339.571 19.8016 342.592 15.1208C343.483 13.7551 344.188 12.3351 345.033 10.6564C341.146 10.2092 338.371 11.4116 336.256 14.4739C332.151 20.5925 328.046 26.7112 323.941 32.8298C323.322 33.8045 323.01 34.9539 322.371 36.3077Z" fill="#7F5BDC"/>
<path d="M169.943 36.7161C170.07 37.981 170.955 40.1313 171.714 40.2578C174.878 41.0167 178.041 42.7876 180.824 40.7637C181.204 30.6447 183.735 21.2846 185.126 11.292C184.241 10.9125 183.482 10.6596 182.722 10.4066C182.09 10.2801 181.457 10.0271 180.824 10.1536C175.51 11.1655 173.486 9.77415 172.347 16.984C171.588 21.4111 170.702 25.8381 169.943 30.2652C169.816 32.542 169.69 34.6923 169.943 36.7161Z" fill="#7F5BDC"/>
<path d="M339.346 282.473C346.431 288.165 353.643 292.592 361.868 294.743C364.652 295.501 368.068 294.743 370.725 292.086C369.586 291.327 368.954 290.695 368.068 290.315C362.754 287.28 357.439 284.371 352.252 281.208C348.203 278.805 344.407 278.805 339.346 282.473Z" fill="#7F5BDC"/>
<path d="M343.91 55.5738C339.817 59.0849 335.93 62.8109 332.001 66.4091C331.08 67.2882 330.409 68.51 329.138 70.3605C339.162 70.4057 343.967 63.382 350.076 58.6241C351.884 57.1624 353.813 55.6599 353.538 51.6253C352.68 51.4869 351.414 51.3432 350.227 51.0307C347.875 51.6791 345.675 53.9843 343.91 55.5738Z" fill="#7F5BDC"/>
<path d="M29.856 318.941C26.3132 325.897 22.8969 332.981 19.2275 340.444C27.8315 342.594 29.2233 341.835 32.26 334.752C34.6641 328.933 37.4477 323.368 39.9783 317.676C40.7375 316.031 41.7497 314.387 42.6354 312.616C35.8028 311.857 32.8927 313.249 29.856 318.941Z" fill="#7F5BDC"/>
<path d="M237.237 319.255C236.604 319.381 235.718 320.267 235.718 320.899C235.592 323.302 235.592 325.705 235.592 328.109C235.592 328.615 235.718 329.121 235.718 329.5C236.857 335.066 238.122 340.505 241.412 345.185C242.424 346.576 243.437 348.094 245.461 348.22C248.751 348.473 251.788 348.094 254.571 345.564C249.13 336.583 246.853 326.717 246.094 316.345C242.424 315.586 240.147 318.496 237.237 319.255ZM237.11 322.543C237.11 322.67 237.11 322.796 237.11 322.796C237.11 322.796 237.11 322.67 237.11 322.543Z" fill="#7F5BDC"/>
<path d="M96.669 6.20543C92.2405 2.03132 80.7263 10.6325 74.2733 10.2531C73.3876 10.1266 72.5019 10.1266 71.7428 9.87359C71.7428 9.7471 71.8693 9.49412 71.9958 9.36764C71.9958 9.24115 72.2489 8.73519 72.2489 8.86168C71.1101 8.10275 70.0979 8.60871 69.4652 9.62061C69.4652 9.62061 69.4652 9.7471 69.3387 9.7471C69.3387 9.7471 69.3387 9.87359 69.2122 9.87359C68.3265 11.7709 68.5795 14.0477 68.7061 16.198C69.3387 24.5462 69.9713 32.8944 70.0979 41.2427C70.7305 45.9227 68.8326 51.4882 70.857 55.7888C70.857 55.9153 70.857 56.0418 70.857 56.2947C70.9836 56.4212 71.1101 56.5477 71.2366 56.6742C71.7428 57.0537 72.2489 57.3067 72.8815 57.4331C75.4121 57.9391 77.9427 56.9272 80.3467 56.5477C82.6242 56.0418 84.7752 55.5358 87.0528 55.0299C86.9262 55.0299 86.9262 55.0299 86.7997 55.0299C87.3058 55.0299 87.8119 54.9034 88.3181 54.7769C88.1915 55.4093 88.1915 55.9153 88.3181 56.1683C87.4324 61.8602 85.914 67.5522 84.1426 72.9912C83.6365 76.2799 78.7018 83.4897 84.1426 84.2486C89.9629 83.4897 95.9098 81.8454 101.351 79.5686C101.477 80.0745 101.477 80.5805 101.604 81.0864C101.604 80.9599 101.604 80.8335 101.477 80.8335C103.375 89.0552 104.134 99.6802 111.22 105.119C112.865 106.384 113.118 106.89 114.003 103.475C114.763 97.7829 114.636 93.1028 115.522 89.3082C116.281 81.4659 117.04 73.6236 118.432 65.9078C121.848 48.4525 124.505 44.4049 105.653 54.018C109.448 33.2739 123.493 17.9688 91.9874 33.2739C92.1139 32.262 92.2405 31.2501 92.367 30.2382C92.367 30.3647 92.367 30.4912 92.2405 30.4912C93.5057 23.2813 95.7833 16.198 97.1751 8.98817C97.5547 8.86168 97.6812 8.48222 97.5547 7.84978L96.669 6.20543ZM104.387 78.5567C104.514 78.5567 104.514 78.4302 104.64 78.4302C107.297 76.5329 110.208 72.3587 104.767 72.7382C98.3138 75.015 91.9874 77.9242 85.1548 78.9361C85.6609 77.9242 90.3425 60.7218 90.9752 53.8915C95.2771 51.9941 94.6445 48.579 86.9262 51.1087C84.9018 52.2471 75.2856 53.1325 71.9958 54.7769C73.8937 48.4525 72.2489 41.1162 72.3754 34.6653C71.4897 28.0879 72.1223 21.0045 70.9836 14.4272C71.9958 14.9331 73.5142 15.1861 75.6652 14.9331C77.4366 15.1861 88.6976 14.4272 94.3914 11.7709C92.4935 18.2218 91.1017 27.9614 90.216 30.1117C90.216 32.6415 87.6854 37.195 90.7221 38.5864C96.669 37.448 101.983 33.7799 108.057 32.8944C105.906 40.9897 103.122 48.9584 101.477 57.3066C97.5547 60.7218 102.489 69.9555 104.387 61.4808C105.526 60.7218 106.665 60.0894 107.804 59.5834C108.689 59.204 109.575 58.698 110.461 58.3186C112.485 57.4331 114.636 56.5477 116.787 55.6623C116.407 57.5596 116.028 59.3305 115.648 61.2278V61.1013C115.648 61.3543 115.522 61.6072 115.522 61.7337C115.522 61.6072 115.522 61.4808 115.648 61.4808C114.636 68.1846 108.436 91.079 111.852 99.9332" fill="#7F5BDC"/>
<path d="M179.62 356.127C182.033 354.481 185.043 353.164 185.497 349.524C186.318 343.134 187.396 336.86 188.038 330.453C188.252 328.317 188.404 325.905 186.33 324.169C179.982 325.601 178.291 328.128 178.378 334.429C178.537 340.018 177.887 345.616 177.592 351.249C177.565 352.415 177.182 353.545 177.253 354.631C177.466 356.091 178.561 356.829 179.62 356.127Z" fill="#7F5BDC"/>
<path d="M205.511 31.6294C208.19 30.4664 211.394 29.7389 212.525 26.2494C214.532 20.1278 216.772 14.1683 218.608 7.99567C219.22 5.93812 219.822 3.59789 218.112 1.50319C211.608 1.71612 209.471 3.8802 208.372 10.0853C207.477 15.6046 205.785 20.9801 204.436 26.4577C204.19 27.5977 203.601 28.6357 203.467 29.7155C203.402 31.1891 204.338 32.1206 205.511 31.6294Z" fill="#7F5BDC"/>
<path d="M370.004 138.206C370.272 137.876 370.535 137.314 370.336 136.765C368.957 135.321 359.791 134.912 357.349 135.253C359.848 128.208 367.825 125.551 371.459 119.493C374.384 116.412 362.252 115.757 360.342 115.206C362.462 111.406 365.382 108.095 368.401 105.058C368.301 104.783 368.251 104.646 368.152 104.371C368.295 104.552 368.301 104.783 368.401 105.058C368.295 104.552 368.008 104.19 367.722 103.827C367.771 103.965 367.915 104.146 367.965 104.283C367.915 104.146 367.771 103.965 367.722 103.827C364.271 100.959 359.363 100.716 355.212 99.3451C349.68 105.314 345.046 112.044 341.211 119.263C339.821 122.72 349.464 121.868 351.567 122.738C347.222 128.121 343.351 133.953 340.466 140.361C340.115 141.11 339.765 141.859 339.414 142.608C342.243 142.904 345.015 142.832 347.85 143.359C342.886 155.183 339.789 167.652 336.691 180.121C346.71 165.3 356.959 150.472 370.004 138.206Z" fill="#7F5BDC"/>
<path fill-rule="evenodd" clip-rule="evenodd" d="M114.411 338.498L76.6211 311.942L11.8884 397.882L65.8751 429.059L114.411 338.498ZM104.377 340.945L90.2957 367.375C88.6167 361.681 84.6155 356.016 78.6716 352.161C73.088 348.539 66.696 346.952 61.1071 347.677L79.8086 323.987L104.377 340.945ZM85.0564 377.025L82.8458 381.22L80.8645 379.935C79.6327 381.439 78.3376 382.646 76.3853 383.682L70.2614 379.71C73.2311 379.078 75.0665 378.222 76.1182 376.601C76.5857 375.881 76.873 375.044 76.6832 374.153C76.4934 373.263 76.0067 372.435 75.2862 371.968C74.5657 371.501 73.9085 371.33 73.1977 371.637C72.4237 371.646 71.1822 372.376 69.5269 373.349C67.8715 374.323 66.7469 374.873 65.6223 375.422C64.6145 375.792 63.2465 375.928 61.8152 375.768C60.3839 375.607 59.1864 375.086 57.9256 374.268C55.9443 372.983 54.4937 371.275 53.6906 368.963C52.8243 366.354 52.9122 363.853 53.7109 361.045L51.5495 359.643L54.4806 355.915L56.2817 357.084C57.3334 355.463 59.0424 354.013 61.5253 352.553L67.8294 356.642C64.5627 357.337 62.1966 358.617 61.028 360.418C60.3269 361.498 60.1028 362.632 60.2926 363.523C60.5456 364.71 61.2125 365.654 62.1131 366.238C63.0137 366.823 63.9679 366.93 64.8588 366.74C65.7497 366.55 66.9912 365.82 68.5297 365.027C70.5988 363.811 72.4342 362.954 74.2793 362.872C76.1244 362.789 77.916 363.184 79.8972 364.469C81.6984 365.637 82.9689 367.228 83.5286 369.126C84.0882 371.025 84.1172 373.346 83.5522 375.794L85.1733 376.845L85.0564 377.025ZM78.4246 389.61L64.3964 415.563L24.7022 393.912L44.7524 368.539C45.8472 375.133 50.155 381.509 56.9995 385.948C63.8439 390.387 71.8376 391.478 78.4246 389.61Z" fill="#7F5BDC"/>
<path fill-rule="evenodd" clip-rule="evenodd" d="M276.932 89.0425L279.922 89.8436C279.922 89.8436 284.069 91.1146 285.6 87.1986L309.16 23.8148C309.16 23.8148 311.23 19.0821 305.088 18.0779C304.151 17.987 302.466 17.6959 300.482 17.3247L276.932 89.0425ZM259.424 11.4537C259.424 11.4537 254.898 10.4016 253.565 15.9726C251.42 25.1713 240.871 74.0959 240.871 74.0959C240.871 74.0959 239.22 78.4603 245.052 80.0224C248.192 80.8635 258.47 83.7768 266.953 86.2093L288.119 15.6152C275.008 13.7054 259.424 11.4537 259.424 11.4537ZM280.513 21.2684L269.57 57.9108L265.383 56.7893L275.677 20.7741L280.513 21.2684ZM273.084 20.8807L265.536 45.4549L261.798 44.4535L268.737 20.3571L273.084 20.8807Z" fill="#7F5BDC"/>
<path fill-rule="evenodd" clip-rule="evenodd" d="M301.617 336.512L301.879 341.475L312.285 343.636L313.649 337.072L301.617 336.512ZM302.231 344.132L302.696 351.851L310.376 353.445L311.894 346.138L302.231 344.132ZM302.899 354.606L303.368 361.679L308.447 362.733L309.836 356.046L302.899 354.606ZM311.049 363.274L317.986 364.714L320.243 358.206L312.438 356.586L311.049 363.274ZM321.155 355.683L323.54 348.556L314.496 346.678L312.978 353.985L321.155 355.683ZM324.452 346.032L327.192 337.816L316.451 337.266L315.01 344.201L324.426 346.156L324.452 346.032ZM320.588 365.254L325.295 366.231L329.039 360.032L322.72 358.721L320.588 365.254ZM330.57 357.637L334.689 350.87L326.141 349.096L323.756 356.223L330.57 357.637ZM336.221 348.475L342.299 338.498L330.02 337.887L327.053 346.572L336.221 348.475ZM294.397 376.869C293.882 379.346 295.479 381.615 297.832 382.104C300.186 382.593 302.58 381.023 303.069 378.67C303.558 376.317 301.987 373.924 299.633 373.435C297.181 372.797 294.911 374.392 294.397 376.869ZM313.228 380.779C312.713 383.255 314.309 385.525 316.663 386.013C319.017 386.502 321.411 384.932 321.9 382.579C322.388 380.226 320.818 377.833 318.464 377.344C316.136 376.732 313.742 378.302 313.228 380.779ZM296.878 326.356L286.595 324.221L283.636 328.516L292.803 330.419L296.069 368.819L325.182 374.863L326.527 370.879L298.9 365.144L296.878 326.356Z" fill="#7F5BDC"/>
</svg>
